<svg xmlns="http://www.w3.org/2000/svg" id="Dimensions" viewBox="0 0 1564.29 639.38"><defs><style>.cls-1,.cls-2{stroke-width:0px;}.cls-2{fill:#3658a8;}</style></defs><path class="cls-1" d="M232.26,254.36c-16.52,16.52-25.62,38.47-25.62,61.82,0,4.08.28,8.11.82,12.08l11.05-6.38c-.14-1.88-.21-3.79-.21-5.71,0-28.05,15.24-52.53,37.91-65.63v-13.21c-8.78,4.21-16.87,9.93-23.95,17.02ZM326.76,384.59c-9.89,4.72-20.95,7.36-32.64,7.36s-22.76-2.64-32.64-7.36l-11.92,6.88c13.35,7.91,28.63,12.14,44.56,12.14s31.21-4.23,44.56-12.15l-11.91-6.87ZM249.96,377.77s-.03.02-.04.03l.05-.02h0ZM320.37,241.63c0,.12,0,.23-.01.34,0,.06,0,.12-.02.17,0,.09-.02.17-.04.26-.04.27-.11.54-.19.78-.02.06-.04.11-.06.17-.14.36-.31.68-.53.98-.03.05-.06.09-.1.13-.06.08-.11.15-.17.21M355.98,254.36c-7.09-7.09-15.18-12.8-23.95-17.02v13.21c22.66,13.1,37.91,37.59,37.91,65.63,0,1.92-.07,3.82-.21,5.71l11.05,6.38c.54-3.97.82-8,.82-12.08,0-23.35-9.1-45.3-25.62-61.82ZM367.77,334.22h0s7.96,4.59,7.96,4.59l-7.96-4.59ZM320.37,241.63c0,.12,0,.23-.01.34,0,.06,0,.12-.02.17,0,.09-.02.17-.04.26-.04.27-.11.54-.19.78-.02.06-.04.11-.06.17-.14.36-.31.68-.53.98-.03.05-.06.09-.1.13-.06.08-.11.15-.17.21M249.96,377.77s-.03.02-.04.03l.05-.02h0Z"></path><path class="cls-2" d="M291.21,129.13v34.15c0,4.03-4.76,6.16-7.77,3.49l-14-12.43c-.99-.89-1.56-2.16-1.56-3.49v-34.15c0-4.03,4.76-6.16,7.77-3.49l14,12.43c.99.89,1.56,2.16,1.56,3.49Z"></path><path class="cls-2" d="M320.37,155.03v34.15c0,4.03-4.76,6.16-7.77,3.49l-14-12.43c-.99-.89-1.56-2.16-1.56-3.49v-34.15c0-4.03,4.76-6.16,7.77-3.49l14,12.43c.99.89,1.56,2.16,1.56,3.49Z"></path><path class="cls-2" d="M291.21,181.58v34.15c0,4.03-4.76,6.16-7.77,3.49l-14-12.43c-.99-.89-1.56-2.16-1.56-3.49v-34.15c0-4.03,4.76-6.16,7.77-3.49l14,12.43c.99.89,1.56,2.16,1.56,3.49Z"></path><path class="cls-2" d="M291.21,234.04v34.15c0,4.03-4.76,6.16-7.77,3.49l-14-12.43c-.99-.89-1.56-2.16-1.56-3.49v-34.15c0-4.03,4.76-6.16,7.77-3.49l12.23,10.86,1.77,1.57c.99.89,1.56,2.16,1.56,3.49Z"></path><path class="cls-2" d="M320.37,259.94v34.15c0,4.03-4.76,6.16-7.77,3.49l-14-12.43c-.99-.89-1.56-2.16-1.56-3.49v-34.15c0-4.03,4.76-6.16,7.77-3.49l14,12.43c.99.89,1.56,2.16,1.56,3.49Z"></path><path class="cls-2" d="M320.37,207.48v34.15c0,.12,0,.23-.01.34,0,.06,0,.12-.02.17,0,.09-.02.17-.04.26-.04.27-.11.54-.19.78-.02.06-.04.11-.06.17-.14.36-.31.68-.53.98-.03.05-.06.09-.1.13-.06.08-.11.15-.17.21-1.59,1.83-4.55,2.3-6.65.44l-3.66-3.25-10.34-9.19c-.99-.89-1.56-2.16-1.56-3.49v-34.15c0-4.03,4.76-6.16,7.77-3.49l14,12.43c.99.89,1.56,2.16,1.56,3.49Z"></path><path class="cls-2" d="M484.31,410.42l-17.78,5.9c-1.27.42-2.65.28-3.8-.39l-29.59-17.07c-3.49-2.01-2.96-7.2.86-8.46l17.77-5.9c1.27-.42,2.65-.28,3.8.39l22.6,13.04,7.03,4.05c3.45,2.02,2.92,7.19-.89,8.45Z"></path><path class="cls-2" d="M447.28,422.71l-17.78,5.9c-1.22.41-2.55.29-3.69-.32l-29.71-17.14-.04-.03-.06-.03c-3.38-2.05-2.82-7.15.96-8.4l17.78-5.9c1.27-.42,2.65-.28,3.8.39l29.59,17.07c3.49,2.01,2.96,7.2-.86,8.46Z"></path><path class="cls-2" d="M438.85,384.2l-17.77,5.9c-1.27.42-2.65.28-3.8-.39l-29.6-17.07c-3.48-2.01-2.96-7.2.86-8.46l17.78-5.9c1.27-.42,2.65-.28,3.8.39l29.59,17.07c3.49,2.01,2.96,7.2-.86,8.46Z"></path><path class="cls-2" d="M393.39,357.97l-17.78,5.9c-1.26.42-2.65.28-3.8-.39l-2.99-1.73-10.13-5.85-16.47-9.5c-3.49-2.01-2.96-7.2.86-8.46l17.78-5.9c1.27-.42,2.65-.28,3.8.39l3.11,1.79h0s7.96,4.59,7.96,4.59l2.53,1.46h0s16,9.23,16,9.23c3.49,2.01,2.96,7.2-.86,8.46Z"></path><path class="cls-2" d="M356.37,370.25l-14.55,4.83h0s-3.22,1.07-3.22,1.07c-1.24.41-2.58.29-3.72-.34l-29.68-17.14c-3.48-2.01-2.94-7.19.87-8.45l17.77-5.9c1.27-.42,2.65-.28,3.8.39l27.8,16.03,1.8,1.04c3.48,2.01,2.96,7.2-.86,8.46Z"></path><path class="cls-2" d="M401.83,396.48l-17.78,5.9c-1.23.41-2.57.29-3.7-.33l-29.72-17.15c-.47-.27-.86-.61-1.18-.98-2.06-2.37-1.22-6.38,2.08-7.47l8.57-2.84,9.21-3.05c1.26-.42,2.65-.28,3.8.39l29.59,17.07c3.49,2.01,2.96,7.2-.86,8.46Z"></path><path class="cls-2" d="M164.93,408.88l-3.78,18.33c-.27,1.3-1.08,2.42-2.22,3.09l-29.61,17.08c-3.49,2.01-7.72-1.04-6.9-4.98l3.77-18.33c.27-1.31,1.08-2.43,2.24-3.1l29.59-17.07c3.49-2.01,7.72,1.04,6.91,4.98Z"></path><path class="cls-2" d="M172.79,370.7l-3.77,18.33c-.27,1.31-1.08,2.43-2.24,3.1l-29.59,17.07c-3.49,2.01-7.72-1.04-6.9-4.98l3.78-18.33c.27-1.31,1.08-2.42,2.23-3.09l29.6-17.08c3.49-2.01,7.72,1.04,6.9,4.98Z"></path><path class="cls-2" d="M210.38,382.66l-3.78,18.33c-.26,1.29-1.06,2.4-2.19,3.07l-29.64,17.1c-3.48,2.01-7.71-1.04-6.9-4.98l3.78-18.33c.27-1.31,1.08-2.43,2.23-3.1l29.59-17.07c3.49-2.01,7.72,1.04,6.9,4.98Z"></path><path class="cls-2" d="M255.84,356.43l-3.78,18.33c-.26,1.25-1.01,2.34-2.1,3.01-.01.01-.03.02-.04.03l-10.91,6.29-18.85,10.88c-3.48,1.93-7.64-1.1-6.84-5.02l3.78-18.33c.27-1.31,1.08-2.43,2.23-3.1l3.3-1.91,10.16-5.86,16.13-9.31c3.48-2.01,7.71,1.04,6.9,4.98Z"></path><path class="cls-2" d="M263.7,318.24l-3.78,18.33c-.27,1.31-1.08,2.43-2.23,3.1l-28.14,16.23-1.46.84c-3.48,2.01-7.71-1.04-6.9-4.98l1.88-9.09h0s1.9-9.24,1.9-9.24c.27-1.29,1.07-2.41,2.21-3.08l29.61-17.09c3.49-2.01,7.72,1.04,6.9,4.98Z"></path><path class="cls-2" d="M218.25,344.47l-2.29,11.08-1.49,7.25c-.27,1.31-1.08,2.43-2.24,3.1l-29.59,17.07c-3.49,2.01-7.72-1.04-6.9-4.98l3.77-18.33c.27-1.3,1.08-2.42,2.22-3.09l28.25-16.3,1.36-.78c3.49-2.01,7.72,1.04,6.9,4.98Z"></path><path class="cls-1" d="M610.01,375.76l44.48-112h33.44l44.48,112h-35.2l-5.12-14.4h-41.76l-5.12,14.4h-35.2ZM660.57,332.24h21.28l-10.4-31.84h-.32l-10.56,31.84Z"></path><path class="cls-1" d="M762.49,377.36c-9.92,0-18.83-2.02-26.72-6.08l15.36-27.52c3.2,1.6,6.99,2.4,11.36,2.4,13.97,0,20.96-8.16,20.96-24.48v-57.92h32v64.32c0,15.25-4.99,27.28-14.96,36.08-9.97,8.8-22.64,13.2-38,13.2Z"></path><path class="cls-1" d="M956.89,317.84c8.42,5.55,12.64,13.71,12.64,24.48,0,10.14-3.6,18.24-10.8,24.32s-16.93,9.12-29.2,9.12h-50.56v-112h47.2c12.26,0,22,3.07,29.2,9.2,7.2,6.13,10.8,14.21,10.8,24.24,0,8.32-3.09,15.2-9.28,20.64ZM910.49,290.96v16.64h15.68c6.08,0,9.12-2.77,9.12-8.32s-3.04-8.32-9.12-8.32h-15.68ZM928.73,348.56c6.19,0,9.28-2.77,9.28-8.32,0-2.88-.91-4.99-2.72-6.32-1.82-1.33-4-2-6.56-2h-18.24v16.64h18.24Z"></path><path class="cls-1" d="M1078.17,375.76h-34.88l-16-34.56h-12.48v34.56h-31.68v-112h52.48c10.77,0,20.05,3.5,27.84,10.48,7.79,6.99,11.68,16.4,11.68,28.24,0,7.36-1.63,13.87-4.88,19.52-3.25,5.65-7.66,10.13-13.2,13.44l21.12,40.32ZM1014.81,291.76v22.24h17.44c3.2,0,5.81-1.04,7.84-3.12,2.03-2.08,3.04-4.72,3.04-7.92s-1.01-5.87-3.04-8c-2.03-2.13-4.64-3.2-7.84-3.2h-17.44Z"></path><path class="cls-1" d="M1085.36,375.76l44.48-112h33.44l44.48,112h-35.2l-5.12-14.4h-41.76l-5.12,14.4h-35.2ZM1135.93,332.24h21.28l-10.4-31.84h-.32l-10.56,31.84Z"></path><path class="cls-1" d="M1216.56,375.76v-112h36l37.28,60.32v-60.32h32v112h-36l-37.28-60.32v60.32h-32Z"></path><path class="cls-1" d="M1337.84,375.76v-112l46.24-.16c7.57,0,14.8,1.23,21.68,3.68,6.88,2.46,13.01,5.95,18.4,10.48,5.38,4.54,9.68,10.43,12.88,17.68,3.2,7.25,4.8,15.31,4.8,24.16,0,11.74-2.75,21.95-8.24,30.64-5.5,8.69-12.56,15.12-21.2,19.28-8.64,4.16-18.08,6.24-28.32,6.24h-46.24ZM1369.84,344.56h12.96c8,0,14.5-2,19.52-6,5.01-4,7.52-10.32,7.52-18.96s-2.51-14.93-7.52-18.88c-5.02-3.95-11.52-5.92-19.52-5.92l-12.96.16v49.6Z"></path></svg>